<svg width="64" height="64" viewBox="0 0 64 64" fill="none" xmlns="http://www.w3.org/2000/svg">
<g clip-path="url(#clip0_827_27362)">
<path d="M4.3452e-05 6.00007C1.94542e-05 2.68635 2.68632 3.28912e-05 6.00004 3.11136e-05L58.0005 3.21858e-06C61.3142 1.441e-06 64.0005 2.68624 64.0005 5.99992L64.0013 58C64.0013 61.3137 61.315 64 58.0013 64H6.00042C2.68673 64 0.000444032 61.3138 0.000420034 58.0001L4.3452e-05 6.00007Z" fill="#1A80F8"/>
<path fill-rule="evenodd" clip-rule="evenodd" d="M11.2183 40.7303C8.34908 37.8731 8.34913 33.2406 11.2184 30.3834L19.0115 22.623C21.4371 20.2076 25.1366 19.834 27.9561 21.5023C28.8283 22.0183 28.8207 23.202 28.1033 23.9163C27.3861 24.6307 26.2151 24.5692 25.2414 24.2856C23.9946 23.9225 22.5925 24.2305 21.6092 25.2097L13.8161 32.9701C12.3815 34.3988 12.3814 36.7149 13.8161 38.1436C15.2507 39.5723 17.5768 39.5723 19.0114 38.1436L34.5974 22.6231C37.4667 19.7658 42.1187 19.7658 44.988 22.623L52.7812 30.3834C55.6504 33.2405 55.6504 37.8731 52.7812 40.7303C49.9119 43.5876 45.2599 43.5876 42.3905 40.7303L39.7929 38.1436L36.5458 41.3771C34.1202 43.7924 30.4207 44.166 27.601 42.4977C26.7289 41.9817 26.7366 40.798 27.4539 40.0837C28.1712 39.3693 29.3421 39.4308 30.3158 39.7144C31.5627 40.0775 32.9648 39.7695 33.9481 38.7903L37.288 35.4645C38.6714 34.0869 40.9143 34.0869 42.2978 35.4645L44.9882 38.1436C46.4229 39.5722 48.7488 39.5722 50.1835 38.1436C51.6181 36.7149 51.6181 34.3988 50.1835 32.9701L42.3903 25.2098C40.9557 23.7812 38.6297 23.7812 37.1951 25.2098L21.6091 40.7304C18.7397 43.5877 14.0876 43.5877 11.2183 40.7303Z" fill="white"/>
</g>
<defs>
<clipPath id="clip0_827_27362">
<rect width="64" height="64" fill="white"/>
</clipPath>
</defs>
</svg>
