<svg width="64" height="64" viewBox="0 0 64 64" fill="none" xmlns="http://www.w3.org/2000/svg">
<g clip-path="url(#clip0_827_27190)">
<path d="M58.0582 0H6C2.68629 0 0 2.68629 0 6V58C0 61.3137 2.68629 64 6 64H58.0582C61.3719 64 64.0582 61.3137 64.0582 58V6C64.0582 2.68629 61.3719 0 58.0582 0Z" fill="#272727"/>
<g clip-path="url(#clip1_827_27190)">
<path d="M49.405 39.7712V21.6383L33.7006 12.5718V19.5335L39.8528 23.0954C40.0957 23.1763 40.0957 23.5811 39.8528 23.743L32.5673 27.9524C32.3244 28.0334 32.0816 28.0334 31.9197 27.9524L24.6341 23.743C24.3913 23.662 24.3913 23.2573 24.6341 23.0954L30.7864 19.5335V12.5718L15.001 21.6383V39.6903V39.6093V39.6903L20.9913 36.2094V29.1667C20.9913 28.9238 21.3151 28.7619 21.477 28.8429L28.7626 33.0523C29.0054 33.1333 29.0864 33.3761 29.0864 33.6999V42.1188C29.0864 42.3616 28.7626 42.5235 28.6007 42.4426L22.4484 38.8808L16.4581 42.3616L32.1625 51.4281L47.786 42.3616L41.7957 38.8808L35.6434 42.5235C35.4006 42.6854 35.1577 42.4426 35.1577 42.1997V33.7809C35.1577 33.538 35.3196 33.2952 35.4815 33.1333L42.7671 28.9238C43.0099 28.7619 43.2528 29.0048 43.2528 29.2476V36.2903L49.405 39.7712V39.7712Z" fill="#CCCCCC"/>
<path d="M32.2422 51.428L47.8657 42.3616L41.8753 38.8807L35.7231 42.5235C35.4802 42.6854 35.2374 42.4425 35.2374 42.1997V33.7808C35.2374 33.5379 35.3993 33.2951 35.5612 33.1332L42.8467 28.9237C43.0896 28.7618 43.3324 29.0047 43.3324 29.2475V36.2903L49.3228 39.7711V21.6382L32.2422 31.5951V51.428Z" fill="#A6A6A6"/>
<path d="M28.6807 42.4425L22.5284 38.8807L16.5381 42.3616L32.1615 51.428V31.5142L15 21.6382V39.6902V39.6092V39.6902L20.9904 36.2093V29.1666C20.9904 28.9237 21.3142 28.7618 21.4761 28.8428L28.7616 33.0522C29.0045 33.1332 29.0854 33.376 29.0854 33.6998V42.1187C29.2473 42.3616 28.9235 42.5235 28.6807 42.4425Z" fill="#CCCCCC"/>
<path d="M33.6996 12.572V19.5338L39.8519 23.0956C40.0947 23.1766 40.0947 23.5813 39.8519 23.7432L32.5663 27.9527C32.3234 28.0336 32.0806 28.0336 31.9187 27.9527L24.6331 23.7432C24.3903 23.6623 24.3903 23.2575 24.6331 23.0956L30.7854 19.5338V12.572L15 21.6385L32.2425 31.5954L49.485 21.6385L33.6996 12.572Z" fill="white"/>
</g>
</g>
<defs>
<clipPath id="clip0_827_27190">
<rect width="64" height="64" fill="white"/>
</clipPath>
<clipPath id="clip1_827_27190">
<rect width="33.9993" height="38.8563" fill="white" transform="translate(15.001 12.5718)"/>
</clipPath>
</defs>
</svg>
