<svg width="64" height="64" viewBox="0 0 64 64" fill="none" xmlns="http://www.w3.org/2000/svg">
<g clip-path="url(#clip0_827_27171)">
<path d="M4.3452e-05 6.00007C1.94542e-05 2.68635 2.68632 3.28912e-05 6.00004 3.11136e-05L58.0005 3.21858e-06C61.3142 1.441e-06 64.0005 2.68624 64.0005 5.99992L64.0013 58C64.0013 61.3137 61.315 64 58.0013 64H6.00042C2.68673 64 0.000444032 61.3138 0.000420034 58.0001L4.3452e-05 6.00007Z" fill="#F05454"/>
<path d="M19.0055 16.4268C18.4912 16.4268 17.998 16.6317 17.6343 16.9965C17.2707 17.3613 17.0664 17.8561 17.0664 18.3721V25.4948C17.0664 26.5692 18.4024 27.5371 19.4734 27.5371C20.5444 27.5371 21.9997 26.6662 21.9997 25.5919V21.5446H29.0226V31.1468H18.8489C18.2179 31.1468 17.7064 31.696 17.7064 32.3734C17.7064 33.0509 18.2179 33.6001 18.8489 33.6001H29.0226V43.0045H25.7316C24.6606 43.0045 23.7924 44.1937 23.7924 45.2681C23.7924 46.3424 24.6606 47.4668 25.7316 47.4668H38.1436C39.2145 47.4668 40.0827 46.3424 40.0827 45.2681C40.0827 44.1937 39.2145 43.0045 38.1436 43.0045L34.9092 42.9408V33.6001H45.1505C45.7815 33.6001 46.293 33.0509 46.293 32.3734C46.293 31.696 45.7815 31.1468 45.1505 31.1468H34.9092V21.4809L42.1329 21.5446V25.5919C42.1329 26.6663 43.4872 27.5372 44.5582 27.5372C45.6291 27.5372 46.933 26.6662 46.933 25.5919V18.4691C46.933 17.3948 46.0648 16.4268 44.9938 16.4268H19.0055Z" fill="white"/>
</g>
<defs>
<clipPath id="clip0_827_27171">
<rect width="64" height="64" fill="white"/>
</clipPath>
</defs>
</svg>
