<svg width="24" height="25" viewBox="0 0 24 25" fill="none" xmlns="http://www.w3.org/2000/svg">
<path d="M21 12.381C21.0034 13.7105 20.6951 15.0221 20.1 16.2088C19.3944 17.6309 18.3098 18.827 16.9674 19.6631C15.6251 20.4993 14.0782 20.9425 12.5 20.9431C11.1801 20.9466 9.87812 20.636 8.7 20.0366L3 21.9505L4.9 16.2088C4.30493 15.0221 3.99656 13.7105 4 12.381C4.00061 10.7912 4.44061 9.23302 5.27072 7.8809C6.10083 6.52879 7.28825 5.43618 8.7 4.72546C9.87812 4.12604 11.1801 3.81541 12.5 3.81888H13C15.0843 3.93471 17.053 4.82091 18.5291 6.3078C20.0052 7.79468 20.885 9.77777 21 11.8774V12.381Z" stroke="black" stroke-width="2" stroke-linecap="round" stroke-linejoin="round"/>
</svg>
